# xmcd
# 
# Track frame offsets:
#     150
#     24857
#     55142
#     104332
#     131052
#     147370
#     166151
# 
# Disc length: 2692
# 
# Revision: 2
# Processed by: cddbd v1.5.2PL0 Copyright (c) Steve Scherf et al.
# Submitted via: fre:ac v1.0.31
# 
DISCID=570a8207
DTITLE=Dave Rawlings Machine - Nashville Obsolete
DYEAR=2015
DGENRE=Country
TTITLE0=The Weekend
TTITLE1=Short Haired Woman Blues
TTITLE2=The Trip
TTITLE3=Bodysnatchers
TTITLE4=The Last Pharaoh
TTITLE5=Candy
TTITLE6=Pilgrim (You Can't Go Home)
EXTD=
EXTT0=
EXTT1=
EXTT2=
EXTT3=
EXTT4=
EXTT5=
EXTT6=
PLAYORDER=
